PathFileType	4	(X/Y/Z)	Kaydara																																																																																																																									
DataRate	CameraRate	NumFrames	NumMarkers	Units	OrigDataRate	OrigDataStartFrame	OrigNumFrames																																																																																																																					
30	30	6	41	mm	30	54	154																																																																																																																					
Frame#	Time	PAIB_LFHD			PAIB_RFHD			PAIB_LBHD			PAIB_RBHD			PAIB_LFTShould			PAIB_RFTShould			PAIB_LRRShould			PAIB_RRRShould			PAIB_T10			PAIB_STRN			PAIB_TRUN			PAIB_LSHO			PAIB_LUPA			PAIB_LELB			PAIB_LFRM			PAIB_LWRA			PAIB_LWRB			PAIB_LFIN			PAIB_RSHO			PAIB_RUPA			PAIB_RELB			PAIB_RFRM			PAIB_RWRA			PAIB_RWRB			PAIB_RFIN			PAIB_LFWT			PAIB_RFWT			PAIB_LBWT			PAIB_RBWT			PAIB_LTHI			PAIB_LKNE			PAIB_LSHN			PAIB_LANK			PAIB_LHEE			PAIB_LTOE			PAIB_RTHI			PAIB_RKNE			PAIB_RSHN			PAIB_RANK			PAIB_RHEE			PAIB_RTOE		
		X1	Y1	Z1	X2	Y2	Z2	X3	Y3	Z3	X4	Y4	Z4	X5	Y5	Z5	X6	Y6	Z6	X7	Y7	Z7	X8	Y8	Z8	X9	Y9	Z9	X10	Y10	Z10	X11	Y11	Z11	X12	Y12	Z12	X13	Y13	Z13	X14	Y14	Z14	X15	Y15	Z15	X16	Y16	Z16	X17	Y17	Z17	X18	Y18	Z18	X19	Y19	Z19	X20	Y20	Z20	X21	Y21	Z21	X22	Y22	Z22	X23	Y23	Z23	X24	Y24	Z24	X25	Y25	Z25	X26	Y26	Z26	X27	Y27	Z27	X28	Y28	Z28	X29	Y29	Z29	X30	Y30	Z30	X31	Y31	Z31	X32	Y32	Z32	X33	Y33	Z33	X34	Y34	Z34	X35	Y35	Z35	X36	Y36	Z36	X37	Y37	Z37	X38	Y38	Z38	X39	Y39	Z39	X40	Y40	Z40	X41	Y41	Z41
																																																																																																																												
39	1.757	249.10872	1690.78171	-1894.22791	60.08398	1693.17307	-1906.2059	260.3311	1650.1384	-2018.00613	57.5314	1666.83807	-2019.32053	215.11774	1419.28268	-1900.28259	91.60194	1417.341	-1899.55887	224.07463	1484.49448	-2043.54141	69.61435	1484.0065	-2033.72849	142.17876	1326.51627	-2122.22046	160.76588	1352.17865	-1863.12439	159.32532	1250.6469	-1841.59531	344.66038	1428.11371	-1980.52246	398.79967	1201.7614	-2001.84265	410.51594	1120.23552	-2046.51001	436.65192	1006.68602	-2004.11682	394.50138	897.31407	-1905.1709	421.50501	875.20065	-1975.69778	444.07951	842.76299	-1913.80219	-38.81406	1421.16165	-1954.43954	-104.58746	1247.66525	-1998.19016	-126.75303	1130.15091	-2005.74356	-141.24333	995.08743	-1965.26047	-80.28454	900.73692	-1859.78119	-146.69422	881.09978	-1907.71179	-138.74176	851.64352	-1838.96042	259.00484	958.88901	-1902.59064	24.63466	962.2673	-1893.11981	192.57765	1017.04742	-2113.37372	46.75785	1023.63205	-2103.20877	245.64718	726.42654	-2094.22195	286.60261	484.26929	-1968.74664	270.27239	300.09876	-2005.05005	278.65849	141.72514	-2136.7572	224.44397	141.23056	-2186.69418	259.17149	73.9507	-1977.62573	-10.74008	724.18221	-2105.67291	-4.78115	478.57506	-2033.42285	60.49885	294.14429	-2043.27087	24.71061	103.97088	-2151.05347	84.17072	114.46134	-2205.7074	53.54199	80.15779	-1984.90387
40	1.79	240.5036	1686.90811	-1881.92993	56.2289	1691.66718	-1893.49091	256.03888	1648.48022	-2006.12274	53.22616	1665.4776	-2006.61392	211.79729	1416.14868	-1891.08643	88.26935	1413.73322	-1889.94446	219.20683	1484.59015	-2033.18436	64.69544	1483.45108	-2021.98074	136.70979	1327.51175	-2113.56766	157.33976	1348.71582	-1855.06149	156.4974	1246.41922	-1835.36713	340.1973	1426.44852	-1972.00745	394.43462	1200.83702	-1997.55341	406.40301	1120.22789	-2043.46298	432.94067	1006.03653	-2002.88239	391.21189	895.06485	-1905.94269	418.53313	874.07425	-1976.62796	441.12389	840.98343	-1915.14587	-42.37991	1419.03137	-1942.08435	-109.60405	1245.82115	-1982.83905	-132.88124	1128.38516	-1988.93494	-145.78653	993.98979	-1946.07742	-81.13183	901.64917	-1841.06064	-149.07661	881.1071	-1886.51428	-138.96777	853.01086	-1817.61139	254.13448	959.03572	-1900.77545	19.55604	961.4975	-1889.87701	187.39079	1013.35037	-2112.32544	41.53585	1021.88049	-2101.36673	241.67103	719.91173	-2076.37085	286.2384	488.89523	-1929.73846	269.17612	306.4588	-1980.07172	274.97946	159.64716	-2125.168	218.80169	163.59791	-2172.52106	259.8415	73.35308	-1974.36798	-16.79233	723.47359	-2102.85568	-7.79871	477.52426	-2031.68152	57.98405	293.8154	-2042.30072	24.15435	103.29969	-2150.83832	83.20358	114.50341	-2205.7785	53.46663	79.75621	-1984.81369
41	1.823	236.97662	1684.16183	-1868.36151	52.58345	1689.17221	-1879.12491	252.0138	1647.13806	-1993.34778	49.26571	1663.84811	-1992.65091	208.33088	1413.99918	-1881.41022	85.23603	1411.41037	-1878.55194	214.16002	1484.65271	-2022.40707	60.08879	1483.20847	-2009.12994	130.4141	1329.4223	-2105.29984	154.48273	1345.86121	-1845.85159	153.60236	1243.23105	-1828.04245	335.86525	1426.07101	-1963.44116	389.9506	1201.11542	-1993.17474	401.94485	1121.63879	-2041.15784	429.23733	1006.75171	-2002.94937	388.66695	893.44193	-1908.13873	414.37332	872.96425	-1978.03009	438.91743	839.85054	-1918.77563	-45.71507	1417.99942	-1928.60565	-113.71319	1245.12146	-1965.92834	-137.7262	1127.61543	-1970.84717	-149.01788	993.94127	-1924.34006	-80.82814	904.31892	-1819.07486	-150.20553	882.6403	-1861.95709	-137.80099	855.92209	-1792.65717	249.37977	959.28802	-1897.52472	14.38039	960.4496	-1885.91797	182.83487	1011.17264	-2109.19785	37.12018	1020.83572	-2098.05313	240.18347	715.84137	-2057.09381	285.00164	496.85612	-1886.35422	266.55655	316.66275	-1947.30347	270.13704	182.4925	-2104.32251	212.54623	191.53645	-2150.04303	258.88771	73.90321	-1969.14352	-19.70665	723.22212	-2100.37079	-10.08844	476.7704	-2030.25269	56.67912	293.19086	-2042.51907	24.23436	103.05435	-2150.905	83.20095	114.70327	-2205.98999	53.38997	79.43261	-1984.78165
42	1.857	235.63179	1682.26227	-1853.5556	49.06433	1686.26328	-1863.32062	248.49035	1645.54184	-1978.61938	45.62777	1662.17331	-1977.39502	205.68016	1410.94543	-1870.44357	82.63408	1408.34473	-1865.7431	209.58443	1484.29825	-2010.32684	55.72935	1482.30453	-1994.44763	124.60197	1330.41687	-2094.81018	152.11398	1342.1907	-1835.32532	151.15792	1239.28459	-1819.24057	331.59836	1424.90845	-1954.10187	386.49944	1200.95657	-1989.03061	397.89986	1122.63802	-2038.9151	426.04202	1007.04437	-2003.8533	387.00516	891.21399	-1910.88379	409.90643	871.13991	-1980.69458	436.88416	837.90321	-1923.63052	-48.37913	1416.04202	-1912.98721	-117.97922	1243.77853	-1948.51944	-142.37972	1126.10786	-1951.73294	-151.34806	993.33527	-1900.73486	-79.52851	908.28461	-1792.92252	-149.71194	884.06242	-1834.69086	-135.52522	859.90891	-1764.92126	244.99563	959.02489	-1890.905	9.98355	958.70628	-1879.68887	179.77247	1008.61618	-2103.11371	34.08553	1020.06012	-2092.59888	239.62223	713.47336	-2036.23871	283.02635	506.75404	-1845.57571	261.73391	327.81544	-1910.54016	263.79488	201.38401	-2075.81223	206.00245	213.93986	-2120.48157	254.70762	80.50009	-1952.34192	-20.69802	724.00497	-2098.01575	-13.13345	476.48544	-2030.43396	53.87324	292.91801	-2042.63184	24.06102	102.85934	-2151.23489	83.29007	114.69343	-2206.017	52.2874	79.15496	-1984.96735
43	1.89	230.73866	1678.69888	-1836.75995	45.91792	1683.79227	-1845.40817	245.39078	1644.48318	-1962.63199	42.44749	1660.6987	-1960.46722	203.87239	1408.03345	-1857.73956	80.85075	1405.52643	-1851.66275	205.84898	1483.43903	-1996.74149	52.04637	1481.14288	-1979.34418	119.91022	1330.67184	-2082.09259	150.66481	1339.02557	-1822.88406	149.6137	1235.89294	-1807.91809	328.80478	1422.86011	-1942.34406	383.54389	1200.09781	-1984.00391	394.49593	1123.00354	-2035.72845	423.4819	1006.67175	-2004.30832	386.02242	888.22922	-1914.22256	408.76419	871.21407	-1985.38971	435.64709	835.36568	-1928.92029	-50.3831	1413.70697	-1896.91711	-121.20234	1241.84937	-1929.29077	-146.47349	1124.29283	-1930.37277	-152.976	992.83188	-1875.06378	-77.45231	912.39334	-1766.13205	-148.21094	885.7605	-1805.32547	-132.39438	864.52843	-1735.22415	240.77696	959.09073	-1880.62164	5.64923	956.67351	-1871.63116	179.08173	1007.75238	-2093.18436	32.94742	1019.93073	-2084.62448	239.75388	713.00247	-2015.87921	284.78022	516.34682	-1813.11142	258.0098	336.75694	-1874.80682	255.48243	207.67422	-2038.1752	197.84266	220.35522	-2083.01849	244.38587	91.98565	-1911.17172	-21.61252	725.51674	-2095.23758	-17.60512	476.56052	-2032.81799	51.07293	292.8664	-2042.74933	23.76848	102.82506	-2151.86188	83.01056	115.27729	-2206.58905	50.89443	78.66136	-1985.6015
44	1.923	229.18869	1676.51642	-1818.98666	43.58521	1681.54236	-1826.73599	242.82394	1643.35876	-1945.1329	39.79869	1659.37759	-1942.16614	202.23867	1406.08566	-1843.23181	79.23739	1403.6026	-1835.93796	202.84563	1482.323	-1981.45477	49.36647	1479.9762	-1962.93549	116.10353	1330.51498	-2067.52991	149.38164	1336.96381	-1808.37418	148.43108	1233.68118	-1794.28482	325.61153	1421.63147	-1931.82159	381.04408	1199.72122	-1977.51099	391.58497	1124.38049	-2032.07077	421.3847	1007.24266	-2004.33441	385.47913	885.35881	-1917.01553	409.9828	872.75032	-1990.90836	435.12356	833.36472	-1934.23447	-52.19239	1412.14966	-1880.49728	-123.13472	1240.42397	-1908.92288	-148.92138	1122.91229	-1907.4173	-153.0884	993.13896	-1847.55585	-74.47765	917.36679	-1737.31873	-145.79392	888.65341	-1774.03458	-128.20235	870.17555	-1703.4407	236.73687	958.90709	-1867.87506	1.38009	954.09325	-1861.41098	178.6854	1008.13545	-2080.48096	32.45899	1019.6463	-2074.15924	241.15686	714.69322	-1997.69806	282.96112	523.9463	-1785.93643	253.31659	340.04139	-1835.54489	247.54835	200.81175	-1990.2832	189.12319	210.03212	-2034.89822	235.35295	97.03588	-1854.14688	-21.67409	726.29082	-2089.84711	-19.05872	476.27689	-2033.1131	49.84033	292.0759	-2043.95126	23.83607	102.91762	-2152.05032	83.35067	115.59698	-2206.51062	49.43035	78.66409	-1985.41779
